# xmcd
#
# Track frame offsets: 
#        150
#        18504
#        36604
#        58982
#        73935
#        88114
#        103760
#        120942
#        139651
#        158549
#        173087
#        190812
#
# Disc length: 2788 seconds
#
# Revision: 2
# Processed by: cddbd v1.5.2PL0 Copyright (c) Steve Scherf et al.
# Submitted via: ExactAudioCopy v0.90b4
#
DISCID=a60ae20c
DTITLE=Darius Rucker - True Believers
DYEAR=2013
DGENRE=Country
TTITLE0=True Believers
TTITLE1=Miss You
TTITLE2=Wagon Wheel
TTITLE3=Love Without You (Feat. Sheryl Crow)
TTITLE4=Radio
TTITLE5=Lost In You
TTITLE6=I Will Love You Still (Feat. Mallary Hope)
TTITLE7=Take Me Home
TTITLE8=Shine
TTITLE9=Heartbreak Road
TTITLE10=Leavin' The Light On
TTITLE11=Lie To Me
EXTD=YEAR: 2013
EXTT0=
EXTT1=
EXTT2=
EXTT3=
EXTT4=
EXTT5=
EXTT6=
EXTT7=
EXTT8=
EXTT9=
EXTT10=
EXTT11=
PLAYORDER=
